<svg width="1371" height="300" viewBox="0 0 1371 300" fill="none" xmlns="http://www.w3.org/2000/svg">
<path d="M175.25 127.375C175.417 127.375 175.5 127.625 175.5 128.125C175.5 128.958 175.042 130.5 174.125 132.75C173.208 134.917 171.875 137.458 170.125 140.375C168.375 143.292 166.208 146.375 163.625 149.625C161.125 152.875 158.25 155.958 155 158.875C153.333 159.292 151.208 159.75 148.625 160.25C146.042 160.667 143.083 161.083 139.75 161.5C136.5 161.917 132.958 162.375 129.125 162.875C125.292 163.292 121.292 163.708 117.125 164.125C112.208 171.875 107.417 179.583 102.75 187.25C98.1667 194.917 93.8333 202.333 89.75 209.5C85.6667 216.75 81.875 223.708 78.375 230.375C74.9583 237.042 72 243.25 69.5 249C67.6667 249.75 64.9583 250.5 61.375 251.25C57.7917 252.083 54.0417 252.875 50.125 253.625C46.2917 254.375 42.7083 255.083 39.375 255.75C36.0417 256.417 33.7083 256.958 32.375 257.375C40.2083 240.625 48.0833 224.833 56 210C64 195.25 72.1667 181.042 80.5 167.375C76.1667 167.708 72.0833 168.042 68.25 168.375C64.4167 168.625 61.0417 168.833 58.125 169C55.2083 169.167 52.8333 169.333 51 169.5C49.1667 169.583 48.0833 169.625 47.75 169.625C47.25 169.625 47 169.292 47 168.625C47 167.708 47.4167 166.375 48.25 164.625C49.0833 162.875 50.0417 161.125 51.125 159.375C52.2917 157.542 53.4583 155.958 54.625 154.625C55.875 153.208 56.8333 152.417 57.5 152.25C64 151.667 70.125 151.042 75.875 150.375C81.7083 149.708 87.25 149 92.5 148.25C106.083 127.167 120 107.375 134.25 88.875C148.5 70.375 162.958 52.3333 177.625 34.75C177.958 34.4167 178.125 33.7083 178.125 32.625C178.125 32.125 177.958 31.625 177.625 31.125C177.375 30.625 176.75 30.5417 175.75 30.875C158 35.7083 141.958 41.0833 127.625 47C113.292 52.9167 100.542 58.9167 89.375 65C78.2083 71 68.5417 76.875 60.375 82.625C52.2917 88.375 45.625 93.5833 40.375 98.25C35.125 102.833 31.25 106.625 28.75 109.625C26.25 112.625 25 114.375 25 114.875C25 115.125 25.0833 115.5 25.25 116C25.5 116.417 26.25 116.625 27.5 116.625C30.1667 116.625 33 116.25 36 115.5C39.0833 114.75 42.125 113.792 45.125 112.625C48.2083 111.458 51.1667 110.208 54 108.875C56.8333 107.458 59.4583 106.125 61.875 104.875C61.9583 106.792 62.0417 109.042 62.125 111.625C62.2917 114.125 62.4167 116.667 62.5 119.25C62.6667 121.833 62.7917 124.333 62.875 126.75C63.0417 129.083 63.125 131 63.125 132.5C62.125 133 60.5 133.542 58.25 134.125C56 134.625 53.25 135.125 50 135.625C46.8333 136.042 43.2083 136.417 39.125 136.75C35.125 137 30.8333 137.125 26.25 137.125C25.75 137.125 25.3333 137.083 25 137C24.75 136.917 24.5 136.875 24.25 136.875C23.5 136.792 22.375 136.125 20.875 134.875C19.4583 133.625 17.875 132.042 16.125 130.125C14.375 128.208 12.5833 126.125 10.75 123.875C8.91667 121.542 7.25 119.333 5.75 117.25C4.25 115.083 3 113.125 2 111.375C1.08333 109.542 0.625 108.208 0.625 107.375C0.625 102.292 2.5 97.0417 6.25 91.625C10.0833 86.125 15.2083 80.6667 21.625 75.25C28.125 69.8333 35.625 64.5 44.125 59.25C52.625 54 61.5833 49.0417 71 44.375C80.4167 39.7083 90 35.4167 99.75 31.5C109.5 27.5 118.833 24.0833 127.75 21.25C136.667 18.4167 144.875 16.2083 152.375 14.625C159.958 12.9583 166.208 12.125 171.125 12.125C172.542 12.125 174.167 12.6667 176 13.75C177.917 14.8333 179.792 16.25 181.625 18C183.542 19.75 185.417 21.7083 187.25 23.875C189.083 26.0417 190.708 28.2083 192.125 30.375C193.625 32.5417 194.833 34.625 195.75 36.625C196.667 38.5417 197.167 40.125 197.25 41.375C197.25 41.875 196.375 43.5417 194.625 46.375C192.958 49.125 190.625 52.7917 187.625 57.375C184.625 61.875 181.083 67.2083 177 73.375C172.917 79.4583 168.458 86.125 163.625 93.375C158.792 100.542 153.667 108.167 148.25 116.25C142.917 124.25 137.5 132.5 132 141C139.5 139.25 145.917 137.583 151.25 136C156.583 134.333 161 132.875 164.5 131.625C168 130.375 170.625 129.375 172.375 128.625C174.125 127.792 175.083 127.375 175.25 127.375ZM232.75 155.25C231.667 158.5 230.292 162.208 228.625 166.375C227.042 170.542 225.5 174.625 224 178.625C222.5 182.625 221.208 186.25 220.125 189.5C219.125 192.75 218.625 195.083 218.625 196.5C218.625 197 218.875 197.25 219.375 197.25C220.292 197.25 221.667 196.708 223.5 195.625C225.333 194.542 227.417 193.125 229.75 191.375C232.167 189.625 234.667 187.708 237.25 185.625C239.833 183.542 242.292 181.5 244.625 179.5C247.042 177.417 249.208 175.542 251.125 173.875C253.042 172.208 254.5 170.958 255.5 170.125C256.25 170.875 257.125 171.833 258.125 173C259.208 174.167 260.208 175.25 261.125 176.25C259.292 178.083 257 180.333 254.25 183C251.5 185.583 248.5 188.25 245.25 191C242.083 193.75 238.75 196.5 235.25 199.25C231.833 202 228.458 204.458 225.125 206.625C221.875 208.792 218.833 210.542 216 211.875C213.167 213.208 210.792 213.875 208.875 213.875C207.625 213.875 206.042 213.417 204.125 212.5C202.208 211.667 200.375 210.583 198.625 209.25C196.875 208 195.375 206.583 194.125 205C192.875 203.417 192.25 201.875 192.25 200.375C193.5 194.792 194.75 189.917 196 185.75C197.25 181.583 198.417 178.042 199.5 175.125C200.583 172.125 201.542 169.708 202.375 167.875C203.208 166.042 203.833 164.667 204.25 163.75C203.25 163.333 202.292 162.875 201.375 162.375C200.458 161.875 199.542 161.375 198.625 160.875C197.292 162.292 195.792 163.792 194.125 165.375C192.542 166.958 190.917 168.542 189.25 170.125C187.583 171.708 185.917 173.25 184.25 174.75C182.583 176.25 181.083 177.625 179.75 178.875L173.75 172.75C175.917 170.667 178.542 168.167 181.625 165.25C184.625 162.25 187.583 159.25 190.5 156.25C188.417 155 186.542 153.833 184.875 152.75C183.208 151.583 181.792 150.542 180.625 149.625C179.208 148.625 177.958 147.708 176.875 146.875C176.375 146.625 176.125 146.083 176.125 145.25C176.125 144.333 176.5 143.042 177.25 141.375C177.917 139.625 178.792 137.792 179.875 135.875C180.958 133.875 182.125 131.875 183.375 129.875C184.625 127.792 185.833 125.917 187 124.25C188.167 122.583 189.167 121.25 190 120.25C190.917 119.167 191.5 118.625 191.75 118.625C191.917 118.625 192.458 118.833 193.375 119.25C194.375 119.667 195.417 120.167 196.5 120.75C197.583 121.25 198.583 121.833 199.5 122.5C200.417 123.167 201 123.75 201.25 124.25C201.333 124.667 201.417 125.542 201.5 126.875C201.583 128.208 201.667 129.833 201.75 131.75C205 133.417 208.333 135.333 211.75 137.5C215.167 139.583 218.292 141.583 221.125 143.5C224.458 145.667 227.625 147.875 230.625 150.125C231.708 150.792 232.375 151.625 232.625 152.625C232.958 153.625 233 154.5 232.75 155.25ZM342.125 176.25C334.458 183.75 327.208 190.042 320.375 195.125C313.625 200.208 307.167 204.292 301 207.375C294.833 210.458 288.917 212.667 283.25 214C277.667 215.333 272.208 216 266.875 216C264.625 216 262.125 215.167 259.375 213.5C256.625 211.833 254.083 209.792 251.75 207.375C249.333 205.042 247.333 202.583 245.75 200C244.167 197.417 243.375 195.208 243.375 193.375C243.375 186.542 244.333 180.292 246.25 174.625C248.083 168.875 250.542 163.708 253.625 159.125C256.708 154.542 260.208 150.5 264.125 147C268.125 143.5 272.25 140.583 276.5 138.25C280.833 135.917 285.125 134.167 289.375 133C293.625 131.833 297.542 131.25 301.125 131.25C303.708 131.25 306.25 132 308.75 133.5C311.333 135 313.667 136.833 315.75 139C317.833 141.167 319.5 143.458 320.75 145.875C322.083 148.208 322.75 150.25 322.75 152C322.75 154.833 321.542 157.75 319.125 160.75C316.792 163.667 313.458 166.667 309.125 169.75C304.792 172.833 299.583 176 293.5 179.25C287.417 182.417 280.708 185.625 273.375 188.875C273.125 190.875 273 192.833 273 194.75C273 197.333 273.542 199.083 274.625 200C275.792 200.917 277.917 201.375 281 201.375C286.5 201.375 291.667 200.458 296.5 198.625C301.417 196.792 306.125 194.417 310.625 191.5C315.125 188.583 319.458 185.25 323.625 181.5C327.792 177.75 331.917 173.958 336 170.125L342.125 176.25ZM298.125 145C296.458 145 294.625 145.917 292.625 147.75C290.625 149.5 288.625 151.833 286.625 154.75C284.625 157.667 282.708 161.042 280.875 164.875C279.042 168.625 277.458 172.542 276.125 176.625C279.208 174.625 282.208 172.5 285.125 170.25C288.125 168 290.792 165.667 293.125 163.25C295.458 160.75 297.333 158.208 298.75 155.625C300.167 153.042 300.875 150.458 300.875 147.875C300.875 147.125 300.625 146.458 300.125 145.875C299.708 145.292 299.042 145 298.125 145ZM410.875 193.125C410.875 195.208 411.542 196.25 412.875 196.25C414.458 196.25 416.333 195.75 418.5 194.75C420.75 193.75 423.083 192.458 425.5 190.875C427.917 189.208 430.375 187.375 432.875 185.375C435.375 183.375 437.708 181.417 439.875 179.5C442.125 177.583 444.125 175.792 445.875 174.125C447.625 172.458 449 171.125 450 170.125C450.833 170.875 451.833 171.833 453 173C454.167 174.167 455.208 175.25 456.125 176.25C453.958 178.417 451.5 180.833 448.75 183.5C446 186.167 443.042 188.917 439.875 191.75C436.792 194.5 433.542 197.208 430.125 199.875C426.792 202.458 423.458 204.792 420.125 206.875C416.792 208.875 413.542 210.5 410.375 211.75C407.208 213 404.208 213.625 401.375 213.625C399.875 213.625 398.042 212.917 395.875 211.5C393.708 210.167 391.625 208.5 389.625 206.5C387.625 204.5 385.917 202.417 384.5 200.25C383.167 198 382.5 196 382.5 194.25C382.5 190.417 382.75 186.417 383.25 182.25C379.5 185.583 375.875 188.75 372.375 191.75C368.875 194.75 365.333 197.583 361.75 200.25C358.25 202.833 354.625 205.208 350.875 207.375C347.208 209.625 343.292 211.542 339.125 213.125C337.875 213.625 336.792 213.875 335.875 213.875C335.042 213.875 333.958 213.458 332.625 212.625C331.292 211.792 330 210.708 328.75 209.375C327.5 208.125 326.417 206.708 325.5 205.125C324.583 203.458 324.125 201.875 324.125 200.375C324.125 196.958 324.792 193.167 326.125 189C327.375 184.75 329.25 180.417 331.75 176C334.167 171.5 337.167 167.042 340.75 162.625C344.25 158.125 348.25 153.917 352.75 150C357.25 146 362.208 142.417 367.625 139.25C373.042 136 378.833 133.417 385 131.5C386.167 131.667 387.667 132.208 389.5 133.125C391.333 133.958 393.042 134.833 394.625 135.75C397.625 127.167 401.042 118.583 404.875 110C408.792 101.333 412.917 93.0417 417.25 85.125C421.667 77.125 426.25 69.6667 431 62.75C435.75 55.75 440.5 49.5833 445.25 44.25C450 38.8333 454.667 34.4583 459.25 31.125C463.917 27.7917 468.333 25.75 472.5 25C474.333 25 476.25 25.625 478.25 26.875C480.333 28.0417 482.292 29.5 484.125 31.25C485.958 32.9167 487.5 34.6667 488.75 36.5C490.083 38.3333 490.917 39.875 491.25 41.125C491.25 44.9583 490.292 49.4167 488.375 54.5C486.458 59.5833 483.792 65.0833 480.375 71C477.042 76.8333 473.042 82.9583 468.375 89.375C463.792 95.7917 458.833 102.333 453.5 109C448.167 115.583 442.542 122.167 436.625 128.75C430.792 135.333 424.917 141.708 419 147.875C416.5 156.375 414.5 164.5 413 172.25C411.583 179.917 410.875 186.875 410.875 193.125ZM473.625 40.125C472.208 40.125 470.458 41.1667 468.375 43.25C466.375 45.3333 464.083 48.25 461.5 52C459 55.6667 456.333 60.0417 453.5 65.125C450.667 70.2083 447.792 75.75 444.875 81.75C441.958 87.75 439.042 94.125 436.125 100.875C433.208 107.625 430.458 114.458 427.875 121.375C434.125 113.708 440.042 106.042 445.625 98.375C451.292 90.625 456.25 83.2917 460.5 76.375C464.75 69.4583 468.125 63.125 470.625 57.375C473.125 51.625 474.375 46.875 474.375 43.125C474.375 42.625 474.333 42 474.25 41.25C474.25 40.5 474.042 40.125 473.625 40.125ZM355 188.875C357.75 188.875 361.833 186.958 367.25 183.125C372.667 179.208 378.792 174 385.625 167.5C386.375 163.667 387.292 159.792 388.375 155.875C389.458 151.875 390.667 147.833 392 143.75C387.167 147 382.417 150.708 377.75 154.875C373.167 159.042 369.083 163.167 365.5 167.25C361.917 171.333 359 175.167 356.75 178.75C354.583 182.25 353.5 184.917 353.5 186.75C353.5 188.167 354 188.875 355 188.875ZM506.75 155.25C505.667 158.5 504.292 162.208 502.625 166.375C501.042 170.542 499.5 174.625 498 178.625C496.5 182.625 495.208 186.25 494.125 189.5C493.125 192.75 492.625 195.083 492.625 196.5C492.625 197 492.875 197.25 493.375 197.25C494.292 197.25 495.667 196.708 497.5 195.625C499.333 194.542 501.417 193.125 503.75 191.375C506.167 189.625 508.667 187.708 511.25 185.625C513.833 183.542 516.292 181.5 518.625 179.5C521.042 177.417 523.208 175.542 525.125 173.875C527.042 172.208 528.5 170.958 529.5 170.125C530.25 170.875 531.125 171.833 532.125 173C533.208 174.167 534.208 175.25 535.125 176.25C533.292 178.083 531 180.333 528.25 183C525.5 185.583 522.5 188.25 519.25 191C516.083 193.75 512.75 196.5 509.25 199.25C505.833 202 502.458 204.458 499.125 206.625C495.875 208.792 492.833 210.542 490 211.875C487.167 213.208 484.792 213.875 482.875 213.875C481.625 213.875 480.042 213.417 478.125 212.5C476.208 211.667 474.375 210.583 472.625 209.25C470.875 208 469.375 206.583 468.125 205C466.875 203.417 466.25 201.875 466.25 200.375C467.5 194.792 468.75 189.917 470 185.75C471.25 181.583 472.417 178.042 473.5 175.125C474.583 172.125 475.542 169.708 476.375 167.875C477.208 166.042 477.833 164.667 478.25 163.75C477.25 163.333 476.292 162.875 475.375 162.375C474.458 161.875 473.542 161.375 472.625 160.875C471.292 162.292 469.792 163.792 468.125 165.375C466.542 166.958 464.917 168.542 463.25 170.125C461.583 171.708 459.917 173.25 458.25 174.75C456.583 176.25 455.083 177.625 453.75 178.875L447.75 172.75C449.917 170.667 452.542 168.167 455.625 165.25C458.625 162.25 461.583 159.25 464.5 156.25C462.417 155 460.542 153.833 458.875 152.75C457.208 151.583 455.792 150.542 454.625 149.625C453.208 148.625 451.958 147.708 450.875 146.875C450.375 146.625 450.125 146.083 450.125 145.25C450.125 144.333 450.5 143.042 451.25 141.375C451.917 139.625 452.792 137.792 453.875 135.875C454.958 133.875 456.125 131.875 457.375 129.875C458.625 127.792 459.833 125.917 461 124.25C462.167 122.583 463.167 121.25 464 120.25C464.917 119.167 465.5 118.625 465.75 118.625C465.917 118.625 466.458 118.833 467.375 119.25C468.375 119.667 469.417 120.167 470.5 120.75C471.583 121.25 472.583 121.833 473.5 122.5C474.417 123.167 475 123.75 475.25 124.25C475.333 124.667 475.417 125.542 475.5 126.875C475.583 128.208 475.667 129.833 475.75 131.75C479 133.417 482.333 135.333 485.75 137.5C489.167 139.583 492.292 141.583 495.125 143.5C498.458 145.667 501.625 147.875 504.625 150.125C505.708 150.792 506.375 151.625 506.625 152.625C506.958 153.625 507 154.5 506.75 155.25ZM537.5 213.875C536.25 213.875 534.667 213.417 532.75 212.5C530.833 211.667 529 210.583 527.25 209.25C525.5 208 524 206.583 522.75 205C521.5 203.417 520.875 201.875 520.875 200.375C521.708 196.708 522.833 192.5 524.25 187.75C525.667 183 527.208 178.167 528.875 173.25C530.458 168.333 532.167 163.542 534 158.875C535.75 154.125 537.333 149.917 538.75 146.25C540.25 142.583 541.542 139.625 542.625 137.375C543.708 135.125 544.417 134 544.75 134C545.25 134 546.5 134.542 548.5 135.625C550.5 136.708 552.583 138.042 554.75 139.625C557 141.125 559 142.75 560.75 144.5C562.5 146.167 563.375 147.625 563.375 148.875C563.375 149.125 563.333 149.458 563.25 149.875C563.167 150.208 563.042 150.667 562.875 151.25C562.208 153.333 561.333 155.792 560.25 158.625C559.25 161.458 558.167 164.417 557 167.5C555.833 170.5 554.667 173.542 553.5 176.625C552.333 179.625 551.292 182.458 550.375 185.125C549.458 187.792 548.708 190.125 548.125 192.125C547.542 194.125 547.25 195.583 547.25 196.5C547.25 197 547.5 197.25 548 197.25C548.917 197.25 550.292 196.708 552.125 195.625C553.958 194.542 556.042 193.125 558.375 191.375C560.792 189.625 563.292 187.708 565.875 185.625C568.458 183.542 570.917 181.5 573.25 179.5C575.667 177.417 577.833 175.542 579.75 173.875C581.667 172.208 583.125 170.958 584.125 170.125C584.875 170.875 585.75 171.833 586.75 173C587.833 174.167 588.833 175.25 589.75 176.25C587.917 178.083 585.625 180.333 582.875 183C580.125 185.583 577.125 188.25 573.875 191C570.708 193.75 567.375 196.5 563.875 199.25C560.458 202 557.125 204.458 553.875 206.625C550.625 208.792 547.583 210.542 544.75 211.875C541.917 213.208 539.5 213.875 537.5 213.875ZM587 95.875C586.917 96.2083 586.583 97.0417 586 98.375C585.5 99.625 584.875 101.125 584.125 102.875C583.375 104.542 582.5 106.333 581.5 108.25C580.583 110.083 579.667 111.792 578.75 113.375C577.833 114.958 576.958 116.292 576.125 117.375C575.292 118.375 574.625 118.875 574.125 118.875C572.625 118.792 570.792 118.333 568.625 117.5C566.542 116.667 564.5 115.75 562.5 114.75C560.583 113.667 558.917 112.625 557.5 111.625C556.167 110.625 555.5 109.917 555.5 109.5C555.5 107.75 556 105.5 557 102.75C558 99.9167 559.167 97.2083 560.5 94.625C561.833 91.9583 563.167 89.6667 564.5 87.75C565.917 85.8333 567 84.875 567.75 84.875C569.25 84.875 571.083 85.375 573.25 86.375C575.417 87.2917 577.5 88.375 579.5 89.625C581.583 90.875 583.333 92.125 584.75 93.375C586.25 94.5417 587 95.375 587 95.875ZM651.5 194.5C652.833 194.5 654.5 194 656.5 193C658.583 192 660.833 190.75 663.25 189.25C665.667 187.667 668.125 185.917 670.625 184C673.208 182.083 675.625 180.208 677.875 178.375C680.208 176.542 682.292 174.833 684.125 173.25C685.958 171.667 687.375 170.458 688.375 169.625C689.125 170.375 690 171.333 691 172.5C692.083 173.667 693.083 174.75 694 175.75C692.167 177.583 689.875 179.833 687.125 182.5C684.375 185.083 681.375 187.75 678.125 190.5C674.958 193.25 671.625 196 668.125 198.75C664.708 201.5 661.333 203.958 658 206.125C654.75 208.292 651.708 210.042 648.875 211.375C646.042 212.708 643.667 213.375 641.75 213.375C638.5 213.375 635.542 212.708 632.875 211.375C630.292 210.125 627.917 208.5 625.75 206.5C623.667 204.417 621.708 202.083 619.875 199.5C618.042 196.833 616.333 194.125 614.75 191.375C613.333 193.208 611.875 195.25 610.375 197.5C608.958 199.667 607.625 201.75 606.375 203.75C605.125 205.75 604.083 207.5 603.25 209C602.417 210.5 601.875 211.417 601.625 211.75C601.458 212.417 601.208 212.875 600.875 213.125C600.542 213.458 600 213.625 599.25 213.625C598 213.625 596.5 213.125 594.75 212.125C593.083 211.208 591.375 209.958 589.625 208.375C587.875 206.792 586.167 205.083 584.5 203.25C582.75 201.333 581.25 199.417 580 197.5C579.333 196.583 578.917 195.542 578.75 194.375C578.583 193.208 578.5 191.792 578.5 190.125C578.5 184.625 579.167 178.417 580.5 171.5C581.833 164.583 583.708 157.333 586.125 149.75C588.542 142.083 591.417 134.208 594.75 126.125C598.167 117.958 601.917 109.917 606 102C610.083 94 614.5 86.2083 619.25 78.625C624 71.0417 628.917 63.9583 634 57.375C639.083 50.7917 644.292 44.875 649.625 39.625C654.958 34.375 660.333 30.0833 665.75 26.75C666.583 26.25 667.333 25.9167 668 25.75C668.75 25.5833 669.375 25.5 669.875 25.5C670.875 25.5 672.292 26.0833 674.125 27.25C675.958 28.3333 677.875 29.6667 679.875 31.25C681.958 32.8333 683.875 34.4167 685.625 36C687.458 37.5833 688.792 38.875 689.625 39.875C690.125 40.625 690.375 41.7083 690.375 43.125C690.375 48.625 688.542 55.5 684.875 63.75C681.208 71.9167 676.042 80.9583 669.375 90.875C662.708 100.708 654.625 111.167 645.125 122.25C635.708 133.333 625.208 144.458 613.625 155.625C612.375 159.875 611.167 164.125 610 168.375C608.833 172.542 607.75 176.75 606.75 181C614.583 169.75 621.5 160.875 627.5 154.375C633.583 147.792 638.792 142.833 643.125 139.5C647.458 136.083 650.958 133.917 653.625 133C656.375 132 658.292 131.5 659.375 131.5C660.375 131.5 661.542 132.042 662.875 133.125C664.292 134.125 665.625 135.333 666.875 136.75C668.125 138.083 669.25 139.417 670.25 140.75C671.25 142 671.917 142.917 672.25 143.5C672.333 144.333 671.458 146.042 669.625 148.625C667.792 151.125 665.25 154.042 662 157.375C658.75 160.708 654.875 164.25 650.375 168C645.958 171.667 641.125 175.083 635.875 178.25C638.542 182.083 640.833 185.083 642.75 187.25C644.667 189.417 646.292 191.042 647.625 192.125C649.125 193.375 650.417 194.167 651.5 194.5ZM638.125 93.625C635.625 98.625 633.042 104.167 630.375 110.25C627.792 116.333 625.208 122.792 622.625 129.625C631.875 119.125 639.75 109.375 646.25 100.375C652.833 91.375 658.208 83.25 662.375 76C666.625 68.6667 669.708 62.2083 671.625 56.625C673.542 51.0417 674.5 46.375 674.5 42.625C674.5 42.375 674.458 42.125 674.375 41.875C674.375 41.5417 674.167 41.375 673.75 41.375C672.75 41.375 671.125 42.5417 668.875 44.875C666.625 47.2083 663.917 50.625 660.75 55.125C657.583 59.625 654.042 65.125 650.125 71.625C646.292 78.0417 642.292 85.375 638.125 93.625ZM917.875 54.125C917.875 58.4583 917.5 63.5833 916.75 69.5C916 75.3333 914.708 82.0833 912.875 89.75C911.125 97.3333 908.708 105.833 905.625 115.25C902.625 124.667 898.875 135.125 894.375 146.625C889.458 159.125 884.417 170.208 879.25 179.875C874.167 189.458 869.375 197.583 864.875 204.25C860.458 210.917 856.583 216.083 853.25 219.75C849.917 223.417 847.583 225.583 846.25 226.25C844.083 227.25 841.708 227.75 839.125 227.75C836.958 227.75 834.75 227.417 832.5 226.75C830.25 226.083 828.333 225.042 826.75 223.625C825.75 222.792 824.083 220.667 821.75 217.25C819.5 213.833 817.083 209 814.5 202.75C811.917 196.417 809.417 188.542 807 179.125C804.583 169.708 802.792 158.5 801.625 145.5C798.042 150.167 794.125 155.167 789.875 160.5C785.625 165.833 781.292 171.167 776.875 176.5C772.458 181.75 768.042 186.917 763.625 192C759.292 197 755.208 201.583 751.375 205.75C747.542 209.917 744.125 213.5 741.125 216.5C738.125 219.583 735.792 221.792 734.125 223.125C733.208 222.292 732.167 221.292 731 220.125C729.75 218.958 728.5 217.708 727.25 216.375C725.917 215.125 724.667 213.833 723.5 212.5C722.25 211.167 721.167 209.917 720.25 208.75C732.417 198.083 744.75 183.042 757.25 163.625C769.75 144.208 781.667 120.792 793 93.375C794.417 94.5417 795.75 95.7083 797 96.875C798.25 98.0417 799.458 99.2083 800.625 100.375C800.958 88.7083 801.333 78.3333 801.75 69.25C802.25 60.1667 802.792 52.1667 803.375 45.25C803.958 38.25 804.5 32.25 805 27.25C805.583 22.25 806.125 18 806.625 14.5C807.125 11 807.542 8.16667 807.875 6C808.292 3.75 808.625 1.95833 808.875 0.625C809.708 1.375 810.958 2.58333 812.625 4.25C814.292 5.83333 816.167 7.625 818.25 9.625C820.333 11.625 822.5 13.75 824.75 16C827.083 18.1667 829.25 20.25 831.25 22.25C833.333 24.25 835.125 26.0417 836.625 27.625C838.208 29.2083 839.292 30.375 839.875 31.125C838.792 35.2917 837.542 40.1667 836.125 45.75C834.792 51.25 833.5 57.75 832.25 65.25C831.083 72.6667 830.083 81.1667 829.25 90.75C828.417 100.333 828 111.25 828 123.5C828.083 134.917 828.5 145.958 829.25 156.625C829.583 161.208 829.958 165.958 830.375 170.875C830.875 175.708 831.458 180.5 832.125 185.25C832.875 189.917 833.75 194.417 834.75 198.75C835.75 203.083 836.875 206.958 838.125 210.375C848.542 193.208 856.833 176.583 863 160.5C869.25 144.417 874.042 128.667 877.375 113.25C880.708 97.8333 882.875 82.6667 883.875 67.75C884.875 52.75 885.375 37.7917 885.375 22.875V14.25C889.708 17.5833 893.833 21.2917 897.75 25.375C901.667 29.4583 905.125 33.3333 908.125 37C911.625 41.25 914.875 45.5417 917.875 49.875V54.125ZM1021.38 176C1013.88 182.75 1006.17 189.125 998.25 195.125C990.333 201.125 982.417 206.917 974.5 212.5C973.333 216 972 219.708 970.5 223.625C969 227.542 967.167 232 965 237C962.583 242.5 959.833 247.875 956.75 253.125C953.667 258.375 950.375 263.292 946.875 267.875C943.458 272.542 939.917 276.792 936.25 280.625C932.583 284.458 928.958 287.75 925.375 290.5C921.875 293.333 918.5 295.5 915.25 297C911.917 298.583 908.875 299.375 906.125 299.375C904.792 299.375 903.167 298.875 901.25 297.875C899.333 296.875 897.5 295.583 895.75 294C894 292.5 892.542 290.875 891.375 289.125C890.125 287.375 889.5 285.75 889.5 284.25C889.5 279 890.917 273.833 893.75 268.75C896.583 263.75 900.5 258.708 905.5 253.625C910.417 248.542 916.208 243.375 922.875 238.125C929.625 232.958 936.875 227.625 944.625 222.125C947.042 215.708 949.375 209.042 951.625 202.125C953.958 195.125 956.208 188.208 958.375 181.375C954.792 185.958 951.333 189.958 948 193.375C944.667 196.792 941.583 199.708 938.75 202.125C935.917 204.458 933.458 206.333 931.375 207.75C929.292 209.25 927.708 210.375 926.625 211.125C925.958 211.542 925.167 211.833 924.25 212C923.333 212.25 922.5 212.375 921.75 212.375C920.167 212.375 918.417 211.875 916.5 210.875C914.583 209.958 912.833 208.75 911.25 207.25C909.583 205.833 908.208 204.25 907.125 202.5C905.958 200.75 905.375 199.083 905.375 197.5C905.375 195.667 906 192.75 907.25 188.75C908.417 184.667 910.042 179.75 912.125 174C914.125 168.25 916.5 161.792 919.25 154.625C922 147.458 924.958 139.833 928.125 131.75C928.292 131.333 928.417 131.167 928.5 131.25C928.667 131.25 928.917 131.25 929.25 131.25C930.833 131.5 933 132.167 935.75 133.25C938.5 134.25 941.167 135.375 943.75 136.625C946.417 137.875 948.708 139.083 950.625 140.25C952.542 141.333 953.5 142.083 953.5 142.5C953.25 143.083 952.583 144.458 951.5 146.625C950.5 148.792 949.292 151.417 947.875 154.5C946.542 157.5 945.083 160.792 943.5 164.375C942 167.875 940.583 171.25 939.25 174.5C938 177.75 936.958 180.708 936.125 183.375C935.292 185.958 934.875 187.875 934.875 189.125C934.875 189.458 935.042 189.625 935.375 189.625C935.958 189.625 937.208 188.875 939.125 187.375C941.125 185.875 943.583 183.5 946.5 180.25C949.417 177 952.708 172.875 956.375 167.875C960.042 162.792 963.917 156.708 968 149.625C969.667 144.125 971.042 139.75 972.125 136.5C973.208 133.167 973.917 131.5 974.25 131.5C974.75 131.5 976.042 132.125 978.125 133.375C980.208 134.625 982.417 136.125 984.75 137.875C987.083 139.542 989.167 141.25 991 143C992.833 144.667 993.75 145.958 993.75 146.875C993.75 147.292 993.708 147.667 993.625 148C993.542 148.333 993.417 148.708 993.25 149.125C991.333 154.958 989.667 160.25 988.25 165C986.833 169.667 985.542 173.958 984.375 177.875C983.292 181.792 982.292 185.417 981.375 188.75C980.542 192 979.708 195.167 978.875 198.25C985.125 193.75 991.333 189.167 997.5 184.5C1003.67 179.75 1009.75 174.792 1015.75 169.625L1021.38 176ZM905.375 285.625C906.875 285.625 908.958 284.167 911.625 281.25C914.292 278.417 917.167 274.75 920.25 270.25C923.333 265.75 926.417 260.708 929.5 255.125C932.667 249.625 935.458 244.208 937.875 238.875C934.708 241.542 931.167 244.458 927.25 247.625C923.333 250.792 919.667 254.25 916.25 258C912.833 261.75 909.958 265.75 907.625 270C905.292 274.333 904.125 278.917 904.125 283.75C904.125 285 904.542 285.625 905.375 285.625ZM1072.75 193.375C1072.08 193.375 1071.46 193.375 1070.88 193.375C1070.38 193.375 1069.83 193.292 1069.25 193.125C1066.5 196.042 1063.54 198.792 1060.38 201.375C1057.29 203.875 1054.17 206.042 1051 207.875C1047.83 209.792 1044.71 211.25 1041.62 212.25C1038.62 213.333 1035.75 213.875 1033 213.875C1030.42 213.875 1027.71 212.958 1024.88 211.125C1022.12 209.292 1019.58 207.125 1017.25 204.625C1014.92 202.042 1013 199.417 1011.5 196.75C1010 194.083 1009.25 191.958 1009.25 190.375C1009.25 186.458 1009.71 181.208 1010.62 174.625C1011.54 167.958 1013.17 160.417 1015.5 152C1017.83 143.5 1021 134.333 1025 124.5C1029.08 114.667 1034.25 104.625 1040.5 94.375C1048.75 80.875 1056.67 69.875 1064.25 61.375C1071.92 52.875 1078.88 46.2083 1085.12 41.375C1091.46 36.4583 1097 33 1101.75 31C1106.5 28.9167 1110.12 27.5833 1112.62 27C1114.46 27 1116.46 27.5 1118.62 28.5C1120.88 29.4167 1123 30.7083 1125 32.375C1127.08 33.9583 1128.96 35.7917 1130.62 37.875C1132.29 39.875 1133.46 41.9583 1134.12 44.125C1133.12 49.9583 1131.17 55.875 1128.25 61.875C1125.42 67.7917 1121.88 73.7917 1117.62 79.875C1113.46 85.875 1108.67 91.9583 1103.25 98.125C1097.83 104.292 1092 110.5 1085.75 116.75C1079.5 122.917 1072.96 129.083 1066.12 135.25C1059.38 141.417 1052.5 147.583 1045.5 153.75C1044.25 157.917 1043.12 161.917 1042.12 165.75C1041.12 169.583 1040.25 173.125 1039.5 176.375C1038.83 179.625 1038.29 182.5 1037.88 185C1037.54 187.417 1037.38 189.375 1037.38 190.875C1037.38 193.208 1037.54 194.792 1037.88 195.625C1038.21 196.375 1038.92 196.75 1040 196.75C1041.08 196.75 1042.33 196.333 1043.75 195.5C1045.25 194.583 1046.79 193.375 1048.38 191.875C1049.96 190.375 1051.58 188.667 1053.25 186.75C1054.92 184.75 1056.5 182.667 1058 180.5C1057.92 179.917 1057.88 179.375 1057.88 178.875C1057.88 178.375 1057.88 177.917 1057.88 177.5C1057.88 174.333 1058.38 171.208 1059.38 168.125C1060.38 165.042 1061.67 162.125 1063.25 159.375C1064.83 156.625 1066.58 154.042 1068.5 151.625C1070.5 149.208 1072.5 147.042 1074.5 145.125C1075.5 145.875 1076.5 146.875 1077.5 148.125C1078.58 149.375 1079.62 150.833 1080.62 152.5C1081.71 154.083 1082.71 155.75 1083.62 157.5C1084.62 159.25 1085.58 161 1086.5 162.75C1086.08 165.917 1085.08 169.208 1083.5 172.625C1082 176.042 1080.04 179.458 1077.62 182.875H1078.12C1080.96 182.875 1083.67 182.667 1086.25 182.25C1088.83 181.75 1091.33 180.958 1093.75 179.875C1096.25 178.708 1098.71 177.208 1101.12 175.375C1103.54 173.458 1106 171.125 1108.5 168.375C1109.33 169.125 1110.33 170.167 1111.5 171.5C1112.67 172.75 1113.67 173.833 1114.5 174.75C1111 178.417 1107.54 181.458 1104.12 183.875C1100.71 186.208 1097.29 188.083 1093.88 189.5C1090.46 190.917 1087 191.917 1083.5 192.5C1080.08 193.083 1076.5 193.375 1072.75 193.375ZM1066 101.5C1063.83 105.5 1061.71 109.875 1059.62 114.625C1057.54 119.375 1055.54 124.375 1053.62 129.625C1062.71 120.792 1071.17 112.083 1079 103.5C1086.83 94.8333 1093.58 86.75 1099.25 79.25C1104.92 71.75 1109.38 65 1112.62 59C1115.88 52.9167 1117.5 47.9583 1117.5 44.125C1117.5 42.9583 1117.08 42.375 1116.25 42.375C1115 42.375 1112.88 43.2917 1109.88 45.125C1106.88 46.875 1103.17 50 1098.75 54.5C1094.42 58.9167 1089.46 64.9583 1083.88 72.625C1078.38 80.2083 1072.42 89.8333 1066 101.5ZM1193.62 176.25C1185.96 183.75 1178.71 190.042 1171.88 195.125C1165.12 200.208 1158.67 204.292 1152.5 207.375C1146.33 210.458 1140.42 212.667 1134.75 214C1129.17 215.333 1123.71 216 1118.38 216C1116.12 216 1113.62 215.167 1110.88 213.5C1108.12 211.833 1105.58 209.792 1103.25 207.375C1100.83 205.042 1098.83 202.583 1097.25 200C1095.67 197.417 1094.88 195.208 1094.88 193.375C1094.88 186.542 1095.83 180.292 1097.75 174.625C1099.58 168.875 1102.04 163.708 1105.12 159.125C1108.21 154.542 1111.71 150.5 1115.62 147C1119.62 143.5 1123.75 140.583 1128 138.25C1132.33 135.917 1136.62 134.167 1140.88 133C1145.12 131.833 1149.04 131.25 1152.62 131.25C1155.21 131.25 1157.75 132 1160.25 133.5C1162.83 135 1165.17 136.833 1167.25 139C1169.33 141.167 1171 143.458 1172.25 145.875C1173.58 148.208 1174.25 150.25 1174.25 152C1174.25 154.833 1173.04 157.75 1170.62 160.75C1168.29 163.667 1164.96 166.667 1160.62 169.75C1156.29 172.833 1151.08 176 1145 179.25C1138.92 182.417 1132.21 185.625 1124.88 188.875C1124.62 190.875 1124.5 192.833 1124.5 194.75C1124.5 197.333 1125.04 199.083 1126.12 200C1127.29 200.917 1129.42 201.375 1132.5 201.375C1138 201.375 1143.17 200.458 1148 198.625C1152.92 196.792 1157.62 194.417 1162.12 191.5C1166.62 188.583 1170.96 185.25 1175.12 181.5C1179.29 177.75 1183.42 173.958 1187.5 170.125L1193.62 176.25ZM1149.62 145C1147.96 145 1146.12 145.917 1144.12 147.75C1142.12 149.5 1140.12 151.833 1138.12 154.75C1136.12 157.667 1134.21 161.042 1132.38 164.875C1130.54 168.625 1128.96 172.542 1127.62 176.625C1130.71 174.625 1133.71 172.5 1136.62 170.25C1139.62 168 1142.29 165.667 1144.62 163.25C1146.96 160.75 1148.83 158.208 1150.25 155.625C1151.67 153.042 1152.38 150.458 1152.38 147.875C1152.38 147.125 1152.12 146.458 1151.62 145.875C1151.21 145.292 1150.54 145 1149.62 145ZM1244.25 155.25C1243.17 158.5 1241.79 162.208 1240.12 166.375C1238.54 170.542 1237 174.625 1235.5 178.625C1234 182.625 1232.71 186.25 1231.62 189.5C1230.62 192.75 1230.12 195.083 1230.12 196.5C1230.12 197 1230.38 197.25 1230.88 197.25C1231.79 197.25 1233.17 196.708 1235 195.625C1236.83 194.542 1238.92 193.125 1241.25 191.375C1243.67 189.625 1246.17 187.708 1248.75 185.625C1251.33 183.542 1253.79 181.5 1256.12 179.5C1258.54 177.417 1260.71 175.542 1262.62 173.875C1264.54 172.208 1266 170.958 1267 170.125C1267.75 170.875 1268.62 171.833 1269.62 173C1270.71 174.167 1271.71 175.25 1272.62 176.25C1270.79 178.083 1268.5 180.333 1265.75 183C1263 185.583 1260 188.25 1256.75 191C1253.58 193.75 1250.25 196.5 1246.75 199.25C1243.33 202 1239.96 204.458 1236.62 206.625C1233.38 208.792 1230.33 210.542 1227.5 211.875C1224.67 213.208 1222.29 213.875 1220.38 213.875C1219.12 213.875 1217.54 213.417 1215.62 212.5C1213.71 211.667 1211.88 210.583 1210.12 209.25C1208.38 208 1206.88 206.583 1205.62 205C1204.38 203.417 1203.75 201.875 1203.75 200.375C1205 194.792 1206.25 189.917 1207.5 185.75C1208.75 181.583 1209.92 178.042 1211 175.125C1212.08 172.125 1213.04 169.708 1213.88 167.875C1214.71 166.042 1215.33 164.667 1215.75 163.75C1214.75 163.333 1213.79 162.875 1212.88 162.375C1211.96 161.875 1211.04 161.375 1210.12 160.875C1208.79 162.292 1207.29 163.792 1205.62 165.375C1204.04 166.958 1202.42 168.542 1200.75 170.125C1199.08 171.708 1197.42 173.25 1195.75 174.75C1194.08 176.25 1192.58 177.625 1191.25 178.875L1185.25 172.75C1187.42 170.667 1190.04 168.167 1193.12 165.25C1196.12 162.25 1199.08 159.25 1202 156.25C1199.92 155 1198.04 153.833 1196.38 152.75C1194.71 151.583 1193.29 150.542 1192.12 149.625C1190.71 148.625 1189.46 147.708 1188.38 146.875C1187.88 146.625 1187.62 146.083 1187.62 145.25C1187.62 144.333 1188 143.042 1188.75 141.375C1189.42 139.625 1190.29 137.792 1191.38 135.875C1192.46 133.875 1193.62 131.875 1194.88 129.875C1196.12 127.792 1197.33 125.917 1198.5 124.25C1199.67 122.583 1200.67 121.25 1201.5 120.25C1202.42 119.167 1203 118.625 1203.25 118.625C1203.42 118.625 1203.96 118.833 1204.88 119.25C1205.88 119.667 1206.92 120.167 1208 120.75C1209.08 121.25 1210.08 121.833 1211 122.5C1211.92 123.167 1212.5 123.75 1212.75 124.25C1212.83 124.667 1212.92 125.542 1213 126.875C1213.08 128.208 1213.17 129.833 1213.25 131.75C1216.5 133.417 1219.83 135.333 1223.25 137.5C1226.67 139.583 1229.79 141.583 1232.62 143.5C1235.96 145.667 1239.12 147.875 1242.12 150.125C1243.21 150.792 1243.88 151.625 1244.12 152.625C1244.46 153.625 1244.5 154.5 1244.25 155.25ZM1370.5 176.25C1363.33 183.583 1356.12 190.333 1348.88 196.5C1341.71 202.583 1334.58 208.292 1327.5 213.625C1326.17 217.458 1324.71 221.333 1323.12 225.25C1321.62 229.25 1320.04 233.25 1318.38 237.25C1315.96 242.75 1313.12 248 1309.88 253C1306.71 258.083 1303.33 262.75 1299.75 267C1296.17 271.333 1292.5 275.208 1288.75 278.625C1285 282.125 1281.38 285.083 1277.88 287.5C1274.46 289.917 1271.29 291.792 1268.38 293.125C1265.38 294.458 1262.83 295.125 1260.75 295.125C1259.33 295.125 1257.67 294.5 1255.75 293.25C1253.83 292 1252.04 290.417 1250.38 288.5C1248.62 286.667 1247.17 284.625 1246 282.375C1244.75 280.208 1244.12 278.125 1244.12 276.125C1244.12 271.792 1245.62 267.542 1248.62 263.375C1251.54 259.208 1255.62 254.917 1260.88 250.5C1266.04 246.083 1272.12 241.417 1279.12 236.5C1286.12 231.667 1293.71 226.417 1301.88 220.75C1303.71 216 1305.75 210.375 1308 203.875C1310.33 197.292 1313.08 189.208 1316.25 179.625C1313.25 183.792 1309.75 187.917 1305.75 192C1301.75 196 1297.62 199.583 1293.38 202.75C1289.12 205.917 1284.88 208.458 1280.62 210.375C1276.46 212.375 1272.62 213.375 1269.12 213.375C1268.21 213.375 1267.04 212.917 1265.62 212C1264.12 211.167 1262.67 210.042 1261.25 208.625C1259.75 207.208 1258.5 205.542 1257.5 203.625C1256.42 201.708 1255.88 199.667 1255.88 197.5C1255.88 194.75 1256.54 191.458 1257.88 187.625C1259.21 183.708 1261.17 179.583 1263.75 175.25C1266.25 170.917 1269.29 166.5 1272.88 162C1276.54 157.5 1280.62 153.292 1285.12 149.375C1289.71 145.375 1294.67 141.833 1300 138.75C1305.42 135.583 1311.17 133.167 1317.25 131.5C1318.17 131.5 1319.46 131.875 1321.12 132.625C1322.79 133.292 1324.42 134.083 1326 135C1327.67 135.833 1329.08 136.667 1330.25 137.5C1331.5 138.333 1332.12 138.875 1332.12 139.125C1332.12 139.292 1332 139.5 1331.75 139.75C1331.58 139.833 1331.46 139.875 1331.38 139.875C1329.46 141.042 1327 142.667 1324 144.75C1321 146.833 1317.83 149.208 1314.5 151.875C1311.17 154.458 1307.83 157.25 1304.5 160.25C1301.17 163.25 1298.12 166.25 1295.38 169.25C1292.71 172.167 1290.54 175 1288.88 177.75C1287.21 180.417 1286.38 182.833 1286.38 185C1286.38 185.75 1286.54 186.417 1286.88 187C1287.29 187.5 1287.88 187.75 1288.62 187.75C1290.71 187.75 1293.04 187.042 1295.62 185.625C1298.29 184.125 1301 182.208 1303.75 179.875C1306.5 177.542 1309.25 174.958 1312 172.125C1314.75 169.208 1317.33 166.375 1319.75 163.625C1322.25 160.792 1324.46 158.167 1326.38 155.75C1328.29 153.333 1329.79 151.375 1330.88 149.875C1331.04 149.708 1331.17 149.542 1331.25 149.375C1331.42 149.208 1331.62 149.042 1331.88 148.875C1332.54 149.042 1333.42 149.875 1334.5 151.375C1335.67 152.875 1336.79 154.625 1337.88 156.625C1338.96 158.542 1339.88 160.458 1340.62 162.375C1341.46 164.292 1341.88 165.667 1341.88 166.5V166.75C1341.88 166.833 1341.79 167.125 1341.62 167.625C1340.71 170.542 1339.54 174.625 1338.12 179.875C1336.71 185.125 1334.92 191.167 1332.75 198C1338.08 193.75 1343.42 189.292 1348.75 184.625C1354.17 179.958 1359.54 174.958 1364.88 169.625L1370.5 176.25ZM1258.88 278.375C1260.54 278.375 1262.96 277.083 1266.12 274.5C1269.21 272 1272.5 268.75 1276 264.75C1279.5 260.833 1282.92 256.458 1286.25 251.625C1289.67 246.875 1292.5 242.25 1294.75 237.75C1289.33 241.667 1284.38 245.333 1279.88 248.75C1275.38 252.25 1271.54 255.625 1268.38 258.875C1265.12 262.125 1262.62 265.25 1260.88 268.25C1259.04 271.333 1258.12 274.375 1258.12 277.375C1258.12 278.042 1258.38 278.375 1258.88 278.375Z" fill="#FFA800"/>
</svg>
